<svg style="display:none" xmlns="http://www.w3.org/2000/svg"
	xmlns:xlink="http://www.w3.org/1999/xlink" version="1.1">
	<symbol id="search" xmlns="http://www.w3.org/2000/svg" viewBox="0 -960 960 960"
		fill="currentColor">
		<path
			d="M784-120 532-372q-30 24-69 38t-83 14q-109 0-184.5-75.5T120-580q0-109 75.5-184.5T380-840q109 0 184.5 75.5T640-580q0 44-14 83t-38 69l252 252-56 56ZM380-400q75 0 127.5-52.5T560-580q0-75-52.5-127.5T380-760q-75 0-127.5 52.5T200-580q0 75 52.5 127.5T380-400Z" />
	</symbol>
	<symbol id="shopping_bag" xmlns="http://www.w3.org/2000/svg" viewBox="0 -960 960 960"
		fill="currentColor">
		<path
			d="M240-80q-33 0-56.5-23.5T160-160v-480q0-33 23.5-56.5T240-720h80q0-66 47-113t113-47q66 0 113 47t47 113h80q33 0 56.5 23.5T800-640v480q0 33-23.5 56.5T720-80H240Zm0-80h480v-480h-80v80q0 17-11.5 28.5T600-520q-17 0-28.5-11.5T560-560v-80H400v80q0 17-11.5 28.5T360-520q-17 0-28.5-11.5T320-560v-80h-80v480Zm160-560h160q0-33-23.5-56.5T480-800q-33 0-56.5 23.5T400-720ZM240-160v-480 480Z" />
	</symbol>
	<symbol id="menu" xmlns="http://www.w3.org/2000/svg" viewBox="0 -960 960 960"
		fill="currentColor">
		<path d="M120-240v-80h720v80H120Zm0-200v-80h720v80H120Zm0-200v-80h720v80H120Z" />
	</symbol>
	<symbol id="account_circle" xmlns="http://www.w3.org/2000/svg" viewBox="0 -960 960 960"
		fill="currentColor">
		<path
			d="M234-276q51-39 114-61.5T480-360q69 0 132 22.5T726-276q35-41 54.5-93T800-480q0-133-93.5-226.5T480-800q-133 0-226.5 93.5T160-480q0 59 19.5 111t54.5 93Zm246-164q-59 0-99.5-40.5T340-580q0-59 40.5-99.5T480-720q59 0 99.5 40.5T620-580q0 59-40.5 99.5T480-440Zm0 360q-83 0-156-31.5T197-197q-54-54-85.5-127T80-480q0-83 31.5-156T197-763q54-54 127-85.5T480-880q83 0 156 31.5T763-763q54 54 85.5 127T880-480q0 83-31.5 156T763-197q-54 54-127 85.5T480-80Zm0-80q53 0 100-15.5t86-44.5q-39-29-86-44.5T480-280q-53 0-100 15.5T294-220q39 29 86 44.5T480-160Zm0-360q26 0 43-17t17-43q0-26-17-43t-43-17q-26 0-43 17t-17 43q0 26 17 43t43 17Zm0-60Zm0 360Z" />
	</symbol>
	<symbol id="close" xmlns="http://www.w3.org/2000/svg" viewBox="0 -960 960 960"
		fill="currentColor">
		<path
			d="m256-200-56-56 224-224-224-224 56-56 224 224 224-224 56 56-224 224 224 224-56 56-224-224-224 224Z" />
	</symbol>
	<symbol id="chevron-right" xmlns="http://www.w3.org/2000/svg" viewBox="0 -960 960 960"
		fill="currentColor">
		<path d="M504-480 320-664l56-56 240 240-240 240-56-56 184-184Z" />
	</symbol>
	<symbol id="favorite" xmlns="http://www.w3.org/2000/svg" viewBox="0 -960 960 960"
		fill="currentColor">
		<path
			d="m480-120-58-52q-101-91-167-157T150-447.5Q111-500 95.5-544T80-634q0-94 63-157t157-63q52 0 99 22t81 62q34-40 81-62t99-22q94 0 157 63t63 157q0 46-15.5 90T810-447.5Q771-395 705-329T538-172l-58 52Zm0-108q96-86 158-147.5t98-107q36-45.5 50-81t14-70.5q0-60-40-100t-100-40q-47 0-87 26.5T518-680h-76q-15-41-55-67.5T300-774q-60 0-100 40t-40 100q0 35 14 70.5t50 81q36 45.5 98 107T480-228Zm0-273Z" />
	</symbol>
	<symbol id="home_pin" xmlns="http://www.w3.org/2000/svg" viewBox="0 -960 960 960"
		fill="currentColor">
		<path
			d="M360-440h80v-110h80v110h80v-190l-120-80-120 80v190Zm120 254q122-112 181-203.5T720-552q0-109-69.5-178.5T480-800q-101 0-170.5 69.5T240-552q0 71 59 162.5T480-186Zm0 106Q319-217 239.5-334.5T160-552q0-150 96.5-239T480-880q127 0 223.5 89T800-552q0 100-79.5 217.5T480-80Zm0-480Z" />
	</symbol>
	<symbol id="call" xmlns="http://www.w3.org/2000/svg" viewBox="0 -960 960 960"
		fill="currentColor">
		<path
			d="M798-120q-125 0-247-54.5T329-329Q229-429 174.5-551T120-798q0-18 12-30t30-12h162q14 0 25 9.5t13 22.5l26 140q2 16-1 27t-11 19l-97 98q20 37 47.5 71.5T387-386q31 31 65 57.5t72 48.5l94-94q9-9 23.5-13.5T670-390l138 28q14 4 23 14.5t9 23.5v162q0 18-12 30t-30 12ZM241-600l66-66-17-94h-89q5 41 14 81t26 79Zm358 358q39 17 79.5 27t81.5 13v-88l-94-19-67 67ZM241-600Zm358 358Z" />
	</symbol>
	<symbol id="local_shipping" xmlns="http://www.w3.org/2000/svg" viewBox="0 -960 960 960"
		fill="currentColor">
		<path
			d="M240-160q-50 0-85-35t-35-85H40v-440q0-33 23.5-56.5T120-800h560v160h120l120 160v200h-80q0 50-35 85t-85 35q-50 0-85-35t-35-85H360q0 50-35 85t-85 35Zm0-80q17 0 28.5-11.5T280-280q0-17-11.5-28.5T240-320q-17 0-28.5 11.5T200-280q0 17 11.5 28.5T240-240ZM120-360h32q17-18 39-29t49-11q27 0 49 11t39 29h272v-360H120v360Zm600 120q17 0 28.5-11.5T760-280q0-17-11.5-28.5T720-320q-17 0-28.5 11.5T680-280q0 17 11.5 28.5T720-240Zm-40-200h170l-90-120h-80v120ZM360-540Z" />
	</symbol>
	<symbol id="pan_zoom" xmlns="http://www.w3.org/2000/svg" viewBox="0 -960 960 960"
		fill="currentColor">
		<path
			d="M120-120v-240h80v104l124-124 56 56-124 124h104v80H120Zm516-460-56-56 124-124H600v-80h240v240h-80v-104L636-580Z" />
	</symbol>
	<symbol id="share" xmlns="http://www.w3.org/2000/svg" viewBox="0 -960 960 960"
		fill="currentColor">
		<path
			d="M720-80q-50 0-85-35t-35-85q0-7 1-14.5t3-13.5L322-392q-17 15-38 23.5t-44 8.5q-50 0-85-35t-35-85q0-50 35-85t85-35q23 0 44 8.5t38 23.5l282-164q-2-6-3-13.5t-1-14.5q0-50 35-85t85-35q50 0 85 35t35 85q0 50-35 85t-85 35q-23 0-44-8.5T638-672L356-508q2 6 3 13.5t1 14.5q0 7-1 14.5t-3 13.5l282 164q17-15 38-23.5t44-8.5q50 0 85 35t35 85q0 50-35 85t-85 35Zm0-640q17 0 28.5-11.5T760-760q0-17-11.5-28.5T720-800q-17 0-28.5 11.5T680-760q0 17 11.5 28.5T720-720ZM240-440q17 0 28.5-11.5T280-480q0-17-11.5-28.5T240-520q-17 0-28.5 11.5T200-480q0 17 11.5 28.5T240-440Zm480 280q17 0 28.5-11.5T760-200q0-17-11.5-28.5T720-240q-17 0-28.5 11.5T680-200q0 17 11.5 28.5T720-160Zm0-600ZM240-480Zm480 280Z" />
	</symbol>
	<symbol id="sell" xmlns="http://www.w3.org/2000/svg" viewBox="0 -960 960 960"
		fill="currentColor">
		<path
			d="M856-390 570-104q-12 12-27 18t-30 6q-15 0-30-6t-27-18L103-457q-11-11-17-25.5T80-513v-287q0-33 23.5-56.5T160-880h287q16 0 31 6.5t26 17.5l352 353q12 12 17.5 27t5.5 30q0 15-5.5 29.5T856-390ZM513-160l286-286-353-354H160v286l353 354ZM260-640q25 0 42.5-17.5T320-700q0-25-17.5-42.5T260-760q-25 0-42.5 17.5T200-700q0 25 17.5 42.5T260-640Zm220 160Z" />
	</symbol>
	<symbol id="check-circle" xmlns="http://www.w3.org/2000/svg" viewBox="0 -960 960 960"
		fill="currentColor">
		<path
			d="m424-296 282-282-56-56-226 226-114-114-56 56 170 170Zm56 216q-83 0-156-31.5T197-197q-54-54-85.5-127T80-480q0-83 31.5-156T197-763q54-54 127-85.5T480-880q83 0 156 31.5T763-763q54 54 85.5 127T880-480q0 83-31.5 156T763-197q-54 54-127 85.5T480-80Zm0-80q134 0 227-93t93-227q0-134-93-227t-227-93q-134 0-227 93t-93 227q0 134 93 227t227 93Zm0-320Z" />
	</symbol>
	<symbol id="error" xmlns="http://www.w3.org/2000/svg" viewBox="0 -960 960 960"
		fill="currentColor">
		<path
			d="M480-280q17 0 28.5-11.5T520-320q0-17-11.5-28.5T480-360q-17 0-28.5 11.5T440-320q0 17 11.5 28.5T480-280Zm-40-160h80v-240h-80v240Zm40 360q-83 0-156-31.5T197-197q-54-54-85.5-127T80-480q0-83 31.5-156T197-763q54-54 127-85.5T480-880q83 0 156 31.5T763-763q54 54 85.5 127T880-480q0 83-31.5 156T763-197q-54 54-127 85.5T480-80Zm0-80q134 0 227-93t93-227q0-134-93-227t-227-93q-134 0-227 93t-93 227q0 134 93 227t227 93Zm0-320Z" />
	</symbol>
	<symbol id="trash" xmlns="http://www.w3.org/2000/svg" viewBox="0 -960 960 960"
		fill="currentColor">
		<path
			d="M280-120q-33 0-56.5-23.5T200-200v-520h-40v-80h200v-40h240v40h200v80h-40v520q0 33-23.5 56.5T680-120H280Zm400-600H280v520h400v-520ZM360-280h80v-360h-80v360Zm160 0h80v-360h-80v360ZM280-720v520-520Z" />
	</symbol>
	<symbol id="home-frigidaire" viewBox="0 0 16 16" fill="none" xmlns="http://www.w3.org/2000/svg">
		<path d="M3.33333 8H2L8 2L14 8H12.6667" stroke="currentColor" stroke-width="1.2"
			stroke-linecap="round" stroke-linejoin="round" />
		<path
			d="M3.33331 8V12.6667C3.33331 13.0203 3.47379 13.3594 3.72384 13.6095C3.97389 13.8595 4.31302 14 4.66665 14H11.3333C11.6869 14 12.0261 13.8595 12.2761 13.6095C12.5262 13.3594 12.6666 13.0203 12.6666 12.6667V8"
			stroke="currentColor" stroke-width="1.2" stroke-linecap="round" stroke-linejoin="round" />
		<path
			d="M6 14V9.99999C6 9.64637 6.14048 9.30723 6.39052 9.05718C6.64057 8.80713 6.97971 8.66666 7.33333 8.66666H8.66667C9.02029 8.66666 9.35943 8.80713 9.60948 9.05718C9.85952 9.30723 10 9.64637 10 9.99999V14"
			stroke="currentColor" stroke-width="1.2" stroke-linecap="round" stroke-linejoin="round" />
	</symbol>
	<symbol id="chevron-frigidaire" viewBox="0 0 16 17" fill="none"
		xmlns="http://www.w3.org/2000/svg">
		<path d="M6 4.5L10 8.5L6 12.5" stroke="currentColor" stroke-width="1.2"
			stroke-linecap="round" stroke-linejoin="round" />
	</symbol>
	<symbol id="headset-frigidaire" viewBox="0 0 24 24" fill="none"
		xmlns="http://www.w3.org/2000/svg">
		<path
			d="M21.5801 11.52L20.2401 10.75C20.2401 10.66 20.2501 10.58 20.2501 10.49C20.2501 5.93999 16.5501 2.23999 12.0001 2.23999C7.45009 2.23999 3.75009 5.93999 3.75009 10.49C3.75009 10.58 3.75009 10.66 3.76009 10.75L2.42009 11.52C1.54009 12.03 1.11009 13.07 1.37009 14.05L2.24009 17.31C2.50009 18.29 3.40009 18.98 4.41009 18.98H5.02009C5.57009 18.98 6.07009 18.73 6.41009 18.3C6.74009 17.86 6.85009 17.31 6.71009 16.78L5.48009 12.18C5.33009 11.63 5.25009 11.07 5.25009 10.51C5.25009 6.70999 8.39009 3.63999 12.2101 3.74999C15.8201 3.85999 18.7301 6.84999 18.7501 10.46C18.7501 10.64 18.7501 10.83 18.7301 11.02C18.7001 11.4 18.6201 11.78 18.5201 12.15L16.5301 19.58C16.3801 20.13 15.8901 20.51 15.3201 20.51H12.6801C12.3001 20.51 11.9601 20.78 11.9101 21.16C11.8501 21.62 12.2101 22.01 12.6501 22.01H15.3101C16.5501 22.01 17.6401 21.17 17.9701 19.97L18.2301 18.99H19.5701C20.5901 18.99 21.4801 18.3 21.7401 17.32L22.6101 14.06C22.8701 13.08 22.4401 12.04 21.5601 11.53L21.5801 11.52ZM5.23009 17.38C5.23009 17.38 5.14009 17.48 5.03009 17.48H4.42009C4.08009 17.48 3.78009 17.25 3.70009 16.92L2.83009 13.66C2.74009 13.33 2.89009 12.99 3.18009 12.82L3.65009 12.55C3.82009 12.45 4.04009 12.55 4.09009 12.73L5.28009 17.16C5.31009 17.26 5.26009 17.34 5.24009 17.38H5.23009ZM21.1801 13.66L20.3101 16.92C20.2201 17.25 19.9201 17.48 19.5901 17.48H19.0501C18.8501 17.48 18.7101 17.29 18.7601 17.1L19.9301 12.73C19.9801 12.54 20.2001 12.45 20.3701 12.55L20.8401 12.82C21.1301 12.99 21.2801 13.34 21.1901 13.66H21.1801Z"
			fill="currentColor" />
	</symbol>
	<symbol id="email-frigidaire" viewBox="0 0 24 24" fill="none" xmlns="http://www.w3.org/2000/svg">
		<path
			d="M1 4.99994V21.9999H23V4.99994H1ZM13.59 13.0699C12.71 13.9499 11.29 13.9499 10.41 13.0699L3.84 6.49994H20.16L13.59 13.0699ZM8.53 13.3199L2.5 19.3499V7.27994L8.53 13.3099V13.3199ZM9.62 14.3599C10.31 14.9299 11.15 15.2399 12 15.2399C12.85 15.2399 13.69 14.9399 14.38 14.3599L20.53 20.5099H3.47L9.62 14.3599ZM15.47 13.3199L21.5 7.28994V19.3499L15.47 13.3199Z"
			fill="currentColor" />
	</symbol>
	<symbol id="usa-frigidaire" viewBox="0 0 20 16" fill="none" xmlns="http://www.w3.org/2000/svg">
		<g clip-path="url(#clip0_122_2954)">
			<rect width="20" height="15" transform="translate(0 0.5)" fill="white" />
			<path fill-rule="evenodd" clip-rule="evenodd" d="M0 0.5H20V15.5H0V0.5Z" fill="#E31D1C" />
			<path fill-rule="evenodd" clip-rule="evenodd"
				d="M0 1.75V3H20V1.75H0ZM0 4.25V5.5H20V4.25H0ZM0 8V6.75H20V8H0ZM0 9.25V10.5H20V9.25H0ZM0 13V11.75H20V13H0ZM0 15.5V14.25H20V15.5H0Z"
				fill="#F7FCFF" />
			<rect y="0.5" width="11.25" height="8.75" fill="#2E42A5" />
			<path fill-rule="evenodd" clip-rule="evenodd"
				d="M1.30025 3.21718L1.96265 2.75577L2.47647 3.12569H2.18555L2.77388 3.64606L2.57517 4.37569H2.26393L1.96172 3.70557L1.70399 4.37569H0.935547L1.52388 4.89606L1.30025 5.71719L1.96265 5.25577L2.47647 5.62569H2.18555L2.77388 6.14606L2.57517 6.87569H2.26393L1.96172 6.20557L1.70399 6.87569H0.935547L1.52388 7.39606L1.30025 8.21719L1.96265 7.75577L2.60357 8.21719L2.4043 7.39606L2.91901 6.87569H2.6816L3.21265 6.50577L3.72647 6.87569H3.43555L4.02388 7.39606L3.80025 8.21719L4.46265 7.75577L5.10357 8.21719L4.9043 7.39606L5.41901 6.87569H5.1816L5.71265 6.50577L6.22647 6.87569H5.93555L6.52388 7.39606L6.30025 8.21719L6.96265 7.75577L7.60357 8.21719L7.4043 7.39606L7.91901 6.87569H7.6816L8.21265 6.50577L8.72647 6.87569H8.43555L9.02388 7.39606L8.80025 8.21719L9.46265 7.75577L10.1036 8.21719L9.9043 7.39606L10.419 6.87569H9.76393L9.46172 6.20557L9.20399 6.87569H8.83136L8.6543 6.14606L9.16901 5.62569H8.9316L9.46265 5.25577L10.1036 5.71719L9.9043 4.89606L10.419 4.37569H9.76393L9.46172 3.70557L9.20399 4.37569H8.83136L8.6543 3.64606L9.16901 3.12569H8.9316L9.46265 2.75577L10.1036 3.21718L9.9043 2.39606L10.419 1.87569H9.76393L9.46172 1.20557L9.20399 1.87569H8.43555L9.02388 2.39606L8.82517 3.12569H8.51393L8.21172 2.45557L7.95399 3.12569H7.58136L7.4043 2.39606L7.91901 1.87569H7.26393L6.96172 1.20557L6.70399 1.87569H5.93555L6.52388 2.39606L6.32517 3.12569H6.01393L5.71172 2.45557L5.45399 3.12569H5.08136L4.9043 2.39606L5.41901 1.87569H4.76393L4.46172 1.20557L4.20399 1.87569H3.43555L4.02388 2.39606L3.82517 3.12569H3.51393L3.21172 2.45557L2.95399 3.12569H2.58136L2.4043 2.39606L2.91901 1.87569H2.26393L1.96172 1.20557L1.70399 1.87569H0.935547L1.52388 2.39606L1.30025 3.21718ZM8.82517 5.62569L9.02388 4.89606L8.43555 4.37569H8.72647L8.21265 4.00577L7.6816 4.37569H7.91901L7.4043 4.89606L7.58136 5.62569H7.95399L8.21172 4.95557L8.51393 5.62569H8.82517ZM7.47647 5.62569L6.96265 5.25577L6.4316 5.62569H6.66901L6.1543 6.14606L6.33136 6.87569H6.70399L6.96172 6.20557L7.26393 6.87569H7.57517L7.77388 6.14606L7.18555 5.62569H7.47647ZM5.27388 6.14606L5.07517 6.87569H4.76393L4.46172 6.20557L4.20399 6.87569H3.83136L3.6543 6.14606L4.16901 5.62569H3.9316L4.46265 5.25577L4.97647 5.62569H4.68555L5.27388 6.14606ZM5.45399 5.62569H5.08136L4.9043 4.89606L5.41901 4.37569H5.1816L5.71265 4.00577L6.22647 4.37569H5.93555L6.52388 4.89606L6.32517 5.62569H6.01393L5.71172 4.95557L5.45399 5.62569ZM3.82517 5.62569L4.02388 4.89606L3.43555 4.37569H3.72647L3.21265 4.00577L2.6816 4.37569H2.91901L2.4043 4.89606L2.58136 5.62569H2.95399L3.21172 4.95557L3.51393 5.62569H3.82517ZM7.77388 3.64606L7.57517 4.37569H7.26393L6.96172 3.70557L6.70399 4.37569H6.33136L6.1543 3.64606L6.66901 3.12569H6.4316L6.96265 2.75577L7.47647 3.12569H7.18555L7.77388 3.64606ZM4.97647 3.12569L4.46265 2.75577L3.9316 3.12569H4.16901L3.6543 3.64606L3.83136 4.37569H4.20399L4.46172 3.70557L4.76393 4.37569H5.07517L5.27388 3.64606L4.68555 3.12569H4.97647Z"
				fill="#F7FCFF" />
		</g>
		<defs>
			<clipPath id="clip0_122_2954">
				<rect width="20" height="15" fill="white" transform="translate(0 0.5)" />
			</clipPath>
		</defs>
	</symbol>
	<symbol id="spain-frigidaire" viewBox="0 0 20 16" fill="none" xmlns="http://www.w3.org/2000/svg">
		<path fill-rule="evenodd" clip-rule="evenodd" d="M0 0.5V15.5H20V0.5H0Z" fill="#FFB400" />
		<mask id="mask0_122_1010" style="mask-type:luminance" maskUnits="userSpaceOnUse" x="0" y="0"
			width="20" height="16">
			<path fill-rule="evenodd" clip-rule="evenodd" d="M0 0.5V15.5H20V0.5H0Z" fill="white" />
		</mask>
		<g mask="url(#mask0_122_1010)">
			<path fill-rule="evenodd" clip-rule="evenodd" d="M0 0.5V4.25H20V0.5H0Z" fill="#C51918" />
			<path fill-rule="evenodd" clip-rule="evenodd" d="M0 11.75V15.5H20V11.75H0Z"
				fill="#C51918" />
			<rect x="3.13037" y="6.92017" width="0.7" height="3.64" fill="#F1F9FF" />
			<path fill-rule="evenodd" clip-rule="evenodd"
				d="M4.1101 6.29004H2.8501V6.64004H3.0601V6.92004H3.9001V6.64004H4.1101V6.29004Z"
				fill="#C88A02" />
			<path fill-rule="evenodd" clip-rule="evenodd"
				d="M3.9001 10.77H4.1101V11.12H2.8501V10.77H3.0601V10.49H3.9001V10.77Z"
				fill="#C88A02" />
			<path fill-rule="evenodd" clip-rule="evenodd"
				d="M3.48023 6.36009C3.63257 6.36009 3.64805 6.30273 3.73792 6.21706C3.80771 6.15053 3.97023 6.06803 3.97023 5.97509C3.97023 5.76246 3.75085 5.59009 3.48023 5.59009C3.20961 5.59009 2.99023 5.76246 2.99023 5.97509C2.99023 6.07863 3.10216 6.14786 3.18679 6.21706C3.27595 6.28996 3.3414 6.36009 3.48023 6.36009Z"
				fill="#AD1619" />
			<path fill-rule="evenodd" clip-rule="evenodd"
				d="M2.8501 11.1201H4.1101V11.6801C4.1101 11.6801 3.9526 11.6101 3.7951 11.6101C3.6376 11.6101 3.4801 11.6801 3.4801 11.6801C3.4801 11.6801 3.3226 11.6101 3.1651 11.6101C3.0076 11.6101 2.8501 11.6801 2.8501 11.6801V11.1201Z"
				fill="#005BBF" />
			<mask id="mask1_122_1010" style="mask-type:luminance" maskUnits="userSpaceOnUse" x="2"
				y="11" width="3" height="1">
				<path fill-rule="evenodd" clip-rule="evenodd"
					d="M2.8501 11.1201H4.1101V11.6801C4.1101 11.6801 3.9526 11.6101 3.7951 11.6101C3.6376 11.6101 3.4801 11.6801 3.4801 11.6801C3.4801 11.6801 3.3226 11.6101 3.1651 11.6101C3.0076 11.6101 2.8501 11.6801 2.8501 11.6801V11.1201Z"
					fill="white" />
			</mask>
			<g mask="url(#mask1_122_1010)">
				<path
					d="M2.83854 11.5701L2.81104 11.5031C2.92452 11.4526 3.03841 11.4272 3.15248 11.4272C3.22617 11.4272 3.26465 11.4375 3.33007 11.4666C3.38753 11.4922 3.41732 11.5002 3.48016 11.5002C3.54301 11.5002 3.5728 11.4922 3.63026 11.4666C3.69568 11.4375 3.73416 11.4272 3.80785 11.4272C3.92192 11.4272 4.03581 11.4526 4.14929 11.5031L4.12179 11.5701C4.01682 11.5234 3.91225 11.5002 3.80785 11.5002C3.74501 11.5002 3.71522 11.5081 3.65776 11.5337C3.59234 11.5628 3.55386 11.5731 3.48016 11.5731C3.40647 11.5731 3.36799 11.5628 3.30257 11.5337C3.24511 11.5081 3.21532 11.5002 3.15248 11.5002C3.04808 11.5002 2.94351 11.5234 2.83854 11.5701Z"
					fill="white" />
				<path
					d="M2.83854 11.3602L2.81104 11.2931C2.92452 11.2426 3.03841 11.2173 3.15248 11.2173C3.22617 11.2173 3.26465 11.2276 3.33007 11.2567C3.38753 11.2822 3.41732 11.2902 3.48016 11.2902C3.54301 11.2902 3.5728 11.2822 3.63026 11.2567C3.69568 11.2276 3.73416 11.2173 3.80785 11.2173C3.92192 11.2173 4.03581 11.2426 4.14929 11.2931L4.12179 11.3602C4.01682 11.3135 3.91225 11.2902 3.80785 11.2902C3.74501 11.2902 3.71522 11.2982 3.65776 11.3237C3.59234 11.3528 3.55386 11.3631 3.48016 11.3631C3.40647 11.3631 3.36799 11.3528 3.30257 11.3237C3.24511 11.2982 3.21532 11.2902 3.15248 11.2902C3.04808 11.2902 2.94351 11.3135 2.83854 11.3602Z"
					fill="white" />
			</g>
			<rect x="9.99023" y="6.92017" width="0.7" height="3.64" fill="#F1F9FF" />
			<path fill-rule="evenodd" clip-rule="evenodd"
				d="M10.9704 6.29004H9.71045V6.64004H9.92045V6.92004H10.7604V6.64004H10.9704V6.29004Z"
				fill="#C88A02" />
			<path fill-rule="evenodd" clip-rule="evenodd"
				d="M10.7604 10.77H10.9704V11.12H9.71045V10.77H9.92045V10.49H10.7604V10.77Z"
				fill="#C88A02" />
			<path fill-rule="evenodd" clip-rule="evenodd"
				d="M10.3401 6.36009C10.4924 6.36009 10.5079 6.30273 10.5978 6.21706C10.6676 6.15053 10.8301 6.06803 10.8301 5.97509C10.8301 5.76246 10.6107 5.59009 10.3401 5.59009C10.0695 5.59009 9.8501 5.76246 9.8501 5.97509C9.8501 6.07863 9.96202 6.14786 10.0466 6.21706C10.1358 6.28996 10.2013 6.36009 10.3401 6.36009Z"
				fill="#AD1619" />
			<path fill-rule="evenodd" clip-rule="evenodd"
				d="M9.71045 11.1201H10.9704V11.6801C10.9704 11.6801 10.8129 11.6101 10.6554 11.6101C10.4979 11.6101 10.3404 11.6801 10.3404 11.6801C10.3404 11.6801 10.1829 11.6101 10.0254 11.6101C9.86795 11.6101 9.71045 11.6801 9.71045 11.6801V11.1201Z"
				fill="#005BBF" />
			<mask id="mask2_122_1010" style="mask-type:luminance" maskUnits="userSpaceOnUse" x="9"
				y="11" width="2" height="1">
				<path fill-rule="evenodd" clip-rule="evenodd"
					d="M9.71045 11.1201H10.9704V11.6801C10.9704 11.6801 10.8129 11.6101 10.6554 11.6101C10.4979 11.6101 10.3404 11.6801 10.3404 11.6801C10.3404 11.6801 10.1829 11.6101 10.0254 11.6101C9.86795 11.6101 9.71045 11.6801 9.71045 11.6801V11.1201Z"
					fill="white" />
			</mask>
			<g mask="url(#mask2_122_1010)">
				<path
					d="M9.69889 11.5701L9.67139 11.5031C9.78487 11.4526 9.89876 11.4272 10.0128 11.4272C10.0865 11.4272 10.125 11.4375 10.1904 11.4666C10.2479 11.4922 10.2777 11.5002 10.3405 11.5002C10.4034 11.5002 10.4331 11.4922 10.4906 11.4666C10.556 11.4375 10.5945 11.4272 10.6682 11.4272C10.7823 11.4272 10.8962 11.4526 11.0096 11.5031L10.9821 11.5701C10.8772 11.5234 10.7726 11.5002 10.6682 11.5002C10.6054 11.5002 10.5756 11.5081 10.5181 11.5337C10.4527 11.5628 10.4142 11.5731 10.3405 11.5731C10.2668 11.5731 10.2283 11.5628 10.1629 11.5337C10.1055 11.5081 10.0757 11.5002 10.0128 11.5002C9.90843 11.5002 9.80386 11.5234 9.69889 11.5701Z"
					fill="white" />
				<path
					d="M9.69889 11.3602L9.67139 11.2931C9.78487 11.2426 9.89876 11.2173 10.0128 11.2173C10.0865 11.2173 10.125 11.2276 10.1904 11.2567C10.2479 11.2822 10.2777 11.2902 10.3405 11.2902C10.4034 11.2902 10.4331 11.2822 10.4906 11.2567C10.556 11.2276 10.5945 11.2173 10.6682 11.2173C10.7823 11.2173 10.8962 11.2426 11.0096 11.2931L10.9821 11.3602C10.8772 11.3135 10.7726 11.2902 10.6682 11.2902C10.6054 11.2902 10.5756 11.2982 10.5181 11.3237C10.4527 11.3528 10.4142 11.3631 10.3405 11.3631C10.2668 11.3631 10.2283 11.3528 10.1629 11.3237C10.1055 11.2982 10.0757 11.2902 10.0128 11.2902C9.90843 11.2902 9.80386 11.3135 9.69889 11.3602Z"
					fill="white" />
			</g>
			<path fill-rule="evenodd" clip-rule="evenodd"
				d="M3.11772 10.2999C3.24392 10.1469 3.31449 10.0077 3.31449 9.85989C3.31449 9.76667 3.28675 9.68616 3.23815 9.62039L3.24636 9.61669C3.24561 9.61704 3.38481 9.55636 3.43328 9.53312C3.52337 9.48992 3.60275 9.44416 3.68014 9.38788C3.72954 9.35195 3.79574 9.31282 3.89666 9.25863L3.99149 9.20819L4.01709 9.19459C4.06614 9.16843 4.10266 9.14837 4.13659 9.12869C4.24232 9.06736 4.31219 9.01667 4.36563 8.9489C4.49221 8.7884 4.46593 8.57082 4.28856 8.45006C4.20166 8.39089 4.08439 8.35694 3.9125 8.33022L3.8769 8.32471L3.66665 8.29212C3.58439 8.2792 3.511 8.26714 3.44555 8.25571C3.87591 8.1841 4.49043 8.21042 4.76074 8.34999L5.01765 7.85239C4.46681 7.56799 3.21173 7.59703 2.7429 7.9199C2.39902 8.15672 2.44517 8.5147 2.80295 8.66885C2.95245 8.73326 3.14735 8.776 3.508 8.83394C3.44756 8.869 3.39746 8.90103 3.35077 8.93498C3.30342 8.96942 3.25269 8.99866 3.19116 9.02816C3.16173 9.04227 3.07459 9.08054 3.03465 9.09808L3.01456 9.10692C2.72314 9.23943 2.5817 9.42274 2.62397 9.75366L2.64684 9.93279L2.68788 9.9454L3.11772 10.2999ZM2.75747 9.837L2.75659 9.83958L2.75727 9.83775L2.75747 9.837ZM10.4415 9.85989C10.4415 10.0077 10.512 10.1469 10.6382 10.2999L11.0681 9.9454L11.1091 9.93279L11.132 9.75366C11.1743 9.42274 11.0328 9.23943 10.7414 9.10692L10.7213 9.09808L10.7212 9.09804C10.6813 9.08049 10.5942 9.04226 10.5648 9.02816C10.5033 8.99866 10.4525 8.96942 10.4052 8.93498C10.3585 8.90103 10.3084 8.869 10.248 8.83394C10.6086 8.776 10.8035 8.73326 10.953 8.66885C11.3108 8.5147 11.3569 8.15672 11.0131 7.9199C10.5442 7.59703 9.28914 7.56799 8.7383 7.85239L8.99521 8.34999C9.26552 8.21042 9.88005 8.1841 10.3104 8.25571C10.245 8.26714 10.1716 8.2792 10.0893 8.29212L9.87903 8.32472L9.84346 8.33022C9.67156 8.35694 9.5543 8.39089 9.4674 8.45006C9.29003 8.57082 9.26375 8.7884 9.39032 8.9489C9.44376 9.01667 9.51363 9.06736 9.61936 9.12869C9.65329 9.14837 9.68982 9.16843 9.73886 9.19459L9.76453 9.20823L9.8593 9.25863C9.96021 9.31282 10.0264 9.35195 10.0758 9.38788C10.1532 9.44416 10.2326 9.48992 10.3227 9.53312C10.3711 9.55636 10.5103 9.61704 10.5096 9.61669L10.5178 9.62039C10.4692 9.68616 10.4415 9.76667 10.4415 9.85989Z"
				fill="#AD1619" />
			<path
				d="M3.70247 8.25L3.90908 8.29274V8.6007C3.68902 8.77629 3.13037 9.07223 3.13037 9.07223V8.25H3.70247Z"
				fill="#F1F9FF" />
			<path
				d="M10.1969 8.25L9.99033 8.29274V8.6007C10.2104 8.77629 10.769 9.07223 10.769 9.07223V8.25H10.1969Z"
				fill="#F1F9FF" />
			<path fill-rule="evenodd" clip-rule="evenodd"
				d="M9.2357 5.00361V4.90112C8.87565 4.64272 8.4986 4.51352 8.10456 4.51352C7.72679 4.34635 7.34442 4.28145 6.95744 4.31885C6.95755 4.31765 6.9576 4.31704 6.9576 4.31704C6.37574 4.26011 5.78934 4.51352 5.78934 4.51352C5.19828 4.51352 4.6582 4.90112 4.6582 4.90112V5.00361L5.36422 5.71269C5.36422 5.71269 5.56295 6.39519 6.95473 6.23479V6.23652C6.95473 6.23652 7.87619 6.21137 7.94094 6.18983C7.96663 6.18129 7.99328 6.17351 8.0205 6.16556C8.20099 6.11287 8.40703 6.05271 8.52968 5.71269L9.2357 5.00361ZM6.95473 4.3502C6.93463 4.58628 6.81991 6.00936 6.95473 6.22999V4.3502Z"
				fill="#AD1619" />
			<path fill-rule="evenodd" clip-rule="evenodd"
				d="M5.19642 5.59358L5.19689 5.59142L4.7002 5.12412L4.74816 5.07313L5.21424 5.51163L5.22617 5.45678C5.30242 5.47336 5.35815 5.47945 5.39063 5.476V5.38088L5.49395 5.43679C5.54477 5.46429 5.61754 5.47168 5.7134 5.45609C5.7838 5.44463 5.8313 5.36287 5.84684 5.18864L5.8782 4.83691L5.98338 5.17401C6.03098 5.32654 6.10359 5.39378 6.20697 5.39378C6.30793 5.39378 6.34852 5.35677 6.353 5.26347L6.3657 4.99886L6.48537 5.23521C6.52848 5.32035 6.58793 5.35899 6.67247 5.35899C6.79337 5.35899 6.87414 5.25819 6.87414 5.10004H6.87642H7.01414H7.01642C7.01642 5.25819 7.09719 5.35899 7.21809 5.35899C7.30263 5.35899 7.36208 5.32035 7.40519 5.23521L7.52485 4.99886L7.53756 5.26347C7.54204 5.35677 7.58262 5.39378 7.68359 5.39378C7.78696 5.39378 7.85958 5.32654 7.90718 5.17401L8.01236 4.83691L8.04372 5.18864C8.05926 5.36287 8.10676 5.44463 8.17716 5.45609C8.27301 5.47168 8.34579 5.46429 8.39661 5.43679L8.49993 5.38088V5.476C8.53241 5.47945 8.58814 5.47336 8.66439 5.45678L8.68652 5.55857L9.20249 5.07313L9.25045 5.12412L8.60839 5.72819C8.51471 5.90071 8.46754 6.01458 8.46754 6.06188C8.46754 6.13404 8.2798 6.17687 7.91338 6.22086C7.62633 6.25533 7.28756 6.27846 7.01045 6.28192V6.28237L6.97532 6.28225L6.9402 6.28237V6.28192C6.66309 6.27846 6.32432 6.25533 6.03726 6.22086C5.67085 6.17687 5.48311 6.13404 5.48311 6.06188C5.48311 6.05293 5.48142 6.0416 5.47805 6.02794C5.4411 5.98089 5.41512 5.90391 5.39784 5.83447C5.38162 5.802 5.36309 5.76655 5.34226 5.72819L5.20001 5.59436L5.19642 5.59358ZM8.63733 5.60485C8.52269 5.62514 8.4399 5.62309 8.39598 5.58733C8.32727 5.60732 8.24669 5.60924 8.15468 5.59427C8.0564 5.57828 7.98797 5.51291 7.94679 5.40447C7.89303 5.47296 7.82505 5.51525 7.74363 5.52892C8.19157 5.59245 8.50537 5.68174 8.50537 5.68174C8.50537 5.68174 8.49762 5.74808 8.47881 5.82608C8.49873 5.78525 8.52231 5.73988 8.54958 5.6898L8.55634 5.68105L8.63733 5.60485ZM7.53225 5.50231C7.49328 5.48295 7.46218 5.45488 7.43969 5.41871C7.40629 5.4482 7.3683 5.46977 7.32612 5.48308C7.39655 5.48847 7.46542 5.49498 7.53225 5.50231ZM7.079 5.46946C7.02447 5.44426 6.97914 5.40391 6.94528 5.35221C6.91166 5.40355 6.86673 5.44369 6.81271 5.46893C6.84471 5.46797 6.87689 5.4673 6.90923 5.46694V5.46662L6.9373 5.4667L6.96537 5.46662V5.46694C7.00347 5.46737 7.04137 5.46822 7.079 5.46946ZM5.38922 5.67626L5.32395 5.61486C5.4023 5.62263 5.46028 5.61525 5.49458 5.58733C5.56328 5.60732 5.64387 5.60924 5.73588 5.59427C5.83415 5.57828 5.90259 5.51291 5.94377 5.40447C5.99597 5.47098 6.06158 5.51277 6.13989 5.52766C5.75367 5.58192 5.46552 5.65575 5.38922 5.67626ZM6.5614 5.48211C6.49358 5.48715 6.42718 5.49324 6.36262 5.50012C6.39957 5.48086 6.42921 5.45354 6.45087 5.41871C6.48347 5.44749 6.52043 5.46873 6.5614 5.48211ZM8.28349 6.06325C8.33254 6.0862 8.37185 6.0633 8.40294 6.01936C8.40025 6.03149 8.39856 6.04247 8.39788 6.0523C8.39378 6.05498 8.38748 6.05822 8.37922 6.06169C8.35617 6.07139 8.32095 6.08171 8.27514 6.09216C8.1851 6.1127 8.05693 6.13313 7.90504 6.15136C7.60842 6.18698 7.25572 6.21041 6.97532 6.21225C6.69493 6.21041 6.34223 6.18698 6.04561 6.15136C5.89371 6.13313 5.76555 6.1127 5.67551 6.09216C5.63711 6.0834 5.60615 6.07473 5.58356 6.06644C5.58605 6.0655 5.58856 6.06443 5.5911 6.06325C5.74402 5.99169 6.7552 5.92455 6.9373 5.91296C7.1194 5.92455 8.13058 5.99169 8.28349 6.06325ZM8.47633 6.05042L8.47527 6.05165L8.47591 6.05076L8.47633 6.05042Z"
				fill="#C88A02" />
			<path fill-rule="evenodd" clip-rule="evenodd"
				d="M6.94584 3.84187C7.06182 3.84187 7.15584 3.74785 7.15584 3.63187C7.15584 3.5159 7.06182 3.42188 6.94584 3.42188C6.82986 3.42188 6.73584 3.5159 6.73584 3.63187C6.73584 3.74785 6.82986 3.84187 6.94584 3.84187Z"
				fill="#005BBF" />
			<path fill-rule="evenodd" clip-rule="evenodd"
				d="M6.80905 4.87293C6.81353 4.89598 6.82053 4.91744 6.82937 4.93656C6.80225 4.9262 6.77005 4.9202 6.73552 4.9202C6.63887 4.9202 6.56052 4.96721 6.56052 5.0252C6.56052 5.08319 6.63887 5.1302 6.73552 5.1302C6.83217 5.1302 6.91052 5.08319 6.91052 5.0252C6.91052 5.08319 6.98887 5.1302 7.08552 5.1302C7.18217 5.1302 7.26052 5.08319 7.26052 5.0252C7.26052 4.96721 7.18217 4.9202 7.08552 4.9202C7.06119 4.9202 7.03802 4.92318 7.01696 4.92856C7.02204 4.89985 7.02182 4.86694 7.0152 4.83286C6.99675 4.73799 6.93566 4.67005 6.87873 4.68111C6.82181 4.69218 6.79061 4.77806 6.80905 4.87293ZM6.91052 5.0252L6.91044 5.02199L6.91059 5.02204L6.91052 5.0252ZM5.77937 5.00656C5.77053 4.98744 5.76353 4.96598 5.75905 4.94293C5.74061 4.84806 5.77181 4.76218 5.82873 4.75111C5.88566 4.74005 5.94675 4.80799 5.9652 4.90286C5.97182 4.93694 5.97204 4.96985 5.96696 4.99856C5.98802 4.99318 6.01119 4.9902 6.03552 4.9902C6.13217 4.9902 6.21052 5.03721 6.21052 5.0952C6.21052 5.15319 6.13217 5.2002 6.03552 5.2002C5.93887 5.2002 5.86052 5.15319 5.86052 5.0952L5.86059 5.09204L5.86044 5.09199L5.86052 5.0952C5.86052 5.15319 5.78217 5.2002 5.68552 5.2002C5.58887 5.2002 5.51052 5.15319 5.51052 5.0952C5.51052 5.03721 5.58887 4.9902 5.68552 4.9902C5.72005 4.9902 5.75225 4.9962 5.77937 5.00656ZM7.97172 5.07055C7.96365 5.12797 7.87952 5.16362 7.78381 5.15017C7.6881 5.13672 7.61706 5.07926 7.62513 5.02184C7.6332 4.96441 7.71733 4.92876 7.81304 4.94221C7.84724 4.94702 7.87829 4.95745 7.90371 4.97148C7.89761 4.95131 7.89367 4.92909 7.89244 4.90564C7.88738 4.80913 7.93023 4.72842 7.98814 4.72539C8.04605 4.72235 8.09709 4.79814 8.10215 4.89465C8.10397 4.92932 8.09961 4.96194 8.09059 4.98966C8.11218 4.98726 8.13554 4.98754 8.15963 4.99092C8.25534 5.00438 8.32639 5.06183 8.31832 5.11926C8.31025 5.17668 8.22612 5.21233 8.13041 5.19888C8.0347 5.18543 7.96365 5.12797 7.97172 5.07055ZM7.97172 5.07055L7.97209 5.06736L7.97224 5.06744L7.97172 5.07055ZM8.63823 5.34821C8.72357 5.39358 8.81482 5.38886 8.84204 5.33765L8.84348 5.33479C8.85189 5.34369 8.86184 5.35016 8.87319 5.35363C8.92865 5.37059 8.99651 5.3094 9.02477 5.21698C9.05302 5.12455 9.03097 5.03588 8.97552 5.01892C8.92006 5.00197 8.8522 5.06315 8.82394 5.15558C8.81708 5.17803 8.81318 5.20026 8.81201 5.2213C8.79293 5.19942 8.76732 5.179 8.73682 5.16279C8.65149 5.11741 8.56024 5.12214 8.53301 5.17334C8.50579 5.22454 8.5529 5.30283 8.63823 5.34821ZM5.20353 5.36965C5.11819 5.41502 5.02694 5.4103 4.99972 5.3591C4.99921 5.35815 4.99874 5.3572 4.99828 5.35623C4.98988 5.36513 4.97992 5.3716 4.96857 5.37507C4.91312 5.39203 4.84525 5.33085 4.817 5.23842C4.78874 5.14599 4.81079 5.05732 4.86624 5.04037C4.9217 5.02341 4.98956 5.0846 5.01782 5.17702C5.02468 5.19948 5.02858 5.22171 5.02975 5.24274C5.04883 5.22086 5.07445 5.20044 5.10494 5.18423C5.19028 5.13886 5.28152 5.14358 5.30875 5.19478C5.33597 5.24598 5.28886 5.32428 5.20353 5.36965Z"
				fill="#C88A02" />
			<path fill-rule="evenodd" clip-rule="evenodd"
				d="M6.86728 3.04785H7.01311V3.13998H7.1084V3.28581H7.01311V3.57748H7.1084V3.72331H6.77051V3.57748H6.86728V3.28581H6.77051V3.13998H6.86728V3.04785Z"
				fill="#C88A02" />
			<rect x="6.84033" y="3.84009" width="0.28" height="0.91" fill="#C88A02" />
			<path
				d="M5.71335 3.99235L5.71213 4.06234C5.09144 4.0515 4.7354 4.14208 4.64503 4.32261C4.55159 4.50925 4.56896 4.73614 4.69989 5.00566L4.63692 5.03624C4.49724 4.74868 4.47816 4.49956 4.58243 4.29127C4.68977 4.07687 5.0664 3.98105 5.71335 3.99235Z"
				fill="white" />
			<path
				d="M5.83343 4.61297L5.79755 4.67307C5.66238 4.59236 5.59473 4.45463 5.59473 4.26482C5.59473 3.99202 5.73525 3.83204 6.0461 3.72257C6.24449 3.6527 6.51549 3.68135 6.85988 3.80621L6.83602 3.87202C6.50542 3.75215 6.24961 3.72511 6.06935 3.7886C5.78424 3.88901 5.66473 4.02505 5.66473 4.26482C5.66473 4.43139 5.72092 4.54579 5.83343 4.61297Z"
				fill="white" />
			<path
				d="M4.78812 4.89833L4.65603 4.94472C4.51898 4.55451 4.55811 4.2895 4.7923 4.17518C4.99865 4.07445 5.29939 4.03346 5.69601 4.04953L5.69035 4.18942C5.31482 4.1742 5.03545 4.21228 4.85371 4.30099C4.69981 4.37612 4.67166 4.56674 4.78812 4.89833Z"
				fill="#C88A02" />
			<path
				d="M6.33131 3.89903C6.01122 3.89903 5.87978 3.97699 5.80468 4.20717C5.75683 4.35386 5.80324 4.47906 5.95373 4.59592L5.86787 4.7065C5.67303 4.5552 5.60433 4.36989 5.67159 4.16375C5.76729 3.87041 5.95507 3.75903 6.33131 3.75903C6.57791 3.75903 6.77 3.82382 6.90376 3.95567L6.92462 3.97623V4.65121H6.78462V4.03607C6.68016 3.94533 6.5301 3.89903 6.33131 3.89903Z"
				fill="#C88A02" />
			<path
				d="M8.15628 4.06217L8.1575 4.13216C8.77819 4.12132 9.13423 4.2119 9.2246 4.39243C9.31804 4.57908 9.30066 4.80596 9.16974 5.07548L9.2327 5.10607C9.37239 4.81851 9.39147 4.56939 9.2872 4.3611C9.17986 4.1467 8.80323 4.05088 8.15628 4.06217Z"
				fill="white" />
			<path
				d="M7.93707 4.62762L7.97296 4.68772C8.10813 4.60701 8.17578 4.46928 8.17578 4.27946C8.17578 4.00666 8.03525 3.84669 7.72441 3.73722C7.52602 3.66735 7.25501 3.696 6.91063 3.82086L6.93449 3.88667C7.26509 3.7668 7.5209 3.73976 7.70116 3.80324C7.98627 3.90366 8.10578 4.0397 8.10578 4.27946C8.10578 4.44603 8.04959 4.56044 7.93707 4.62762Z"
				fill="white" />
			<path
				d="M9.12497 4.96815L9.25706 5.01455C9.39411 4.62433 9.35497 4.35932 9.12079 4.24501C8.91443 4.14428 8.61369 4.10328 8.21707 4.11935L8.22274 4.25924C8.59826 4.24402 8.87764 4.2821 9.05937 4.37082C9.21328 4.44594 9.24143 4.63656 9.12497 4.96815Z"
				fill="#C88A02" />
			<path
				d="M7.57396 3.90978C7.89405 3.90978 8.0255 3.98773 8.10059 4.21791C8.14845 4.3646 8.10203 4.4898 7.95154 4.60666L8.03741 4.71724C8.23224 4.56594 8.30094 4.38064 8.23369 4.17449C8.13798 3.88115 7.9502 3.76978 7.57396 3.76978C7.32737 3.76978 7.13527 3.83456 7.00151 3.96641L6.98066 3.98697V4.66195H7.12066V4.04681C7.22512 3.95608 7.37517 3.90978 7.57396 3.90978Z"
				fill="#C88A02" />
			<path opacity="0.3" fill-rule="evenodd" clip-rule="evenodd"
				d="M4.67041 6.29004H9.22041V10.3781C9.22041 10.3781 8.88243 11.75 6.94541 11.75C5.00839 11.75 4.67041 10.3419 4.67041 10.3419V6.29004Z"
				fill="#E1E5E8" />
			<mask id="mask3_122_1010" style="mask-type:luminance" maskUnits="userSpaceOnUse" x="4"
				y="6" width="6" height="6">
				<path fill-rule="evenodd" clip-rule="evenodd"
					d="M4.67041 6.29004H9.22041V10.3781C9.22041 10.3781 8.88243 11.75 6.94541 11.75C5.00839 11.75 4.67041 10.3419 4.67041 10.3419V6.29004Z"
					fill="white" />
			</mask>
			<g mask="url(#mask3_122_1010)">
				<rect x="4.67041" y="8.81006" width="2.31" height="2.73" fill="#FFC034" />
				<rect x="4.9502" y="8.94995" width="0.28" height="2.59" fill="#AD1619" />
				<rect x="5.93018" y="8.94995" width="0.28" height="2.59" fill="#AD1619" />
				<rect x="5.44043" y="8.94995" width="0.28" height="2.59" fill="#AD1619" />
				<rect x="6.42041" y="8.94995" width="0.28" height="2.59" fill="#AD1619" />
				<rect x="4.67041" y="6.21997" width="2.31" height="2.66" fill="#AD1619" />
				<rect x="6.91064" y="8.73999" width="2.31" height="2.66" fill="#AD1619" />
				<rect x="6.91064" y="6.29004" width="2.45" height="2.59" fill="#F1F9FF" />
				<path fill-rule="evenodd" clip-rule="evenodd"
					d="M5.65064 6.5H5.86064V7.08074H6.00064V6.79037H6.21064V7.08074H6.42064V7.4437H6.21064V8.09704H6.42064V8.46H5.16064V8.09704H5.37064V7.4437H5.16064V7.08074H5.30064V6.79037H5.51064V7.08074H5.65064V6.5Z"
					fill="#C88A02" />
				<path
					d="M8.1123 6.62197L8.25566 6.46851L8.55662 6.74965L8.41327 6.90311L8.1123 6.62197Z"
					fill="#C88A02" />
				<path fill-rule="evenodd" clip-rule="evenodd"
					d="M8.97559 10.5875V9.05493H7.22559V10.5746L7.22836 10.5865C7.31695 10.964 7.61864 11.1549 8.10059 11.1549C8.58207 11.1549 8.88372 10.9689 8.97267 10.5996L8.97559 10.5875ZM8.10059 10.9449C7.7139 10.9449 7.50272 10.8147 7.43559 10.5499V9.26493H8.76559V10.5621C8.69863 10.8182 8.48743 10.9449 8.10059 10.9449Z"
					fill="#FFC034" />
				<path fill-rule="evenodd" clip-rule="evenodd"
					d="M8.1729 9.18311H8.02707V9.8779L7.45218 9.25264L7.34912 9.34739L7.86903 9.91285H7.39797V10.1229H7.75982H7.88048L7.34912 10.7008L7.45218 10.7955L8.02707 10.1703V10.9824H8.1729V10.2434L8.68059 10.7955L8.78365 10.7008L8.25229 10.1229H8.8454V9.91285H8.26375L8.78365 9.34739L8.68059 9.25264L8.1729 9.80481V9.18311Z"
					fill="#FFC034" />
				<path fill-rule="evenodd" clip-rule="evenodd"
					d="M8.42721 11.4017C8.42721 11.4017 6.94459 11.5182 6.94459 10.562C6.94459 10.562 6.93045 11.4017 5.38232 11.4017V12.1566H8.42721V11.4017Z"
					fill="#F1F9FF" />
				<path fill-rule="evenodd" clip-rule="evenodd"
					d="M6.94541 9.37C7.23536 9.37 7.47041 9.11928 7.47041 8.81C7.47041 8.50072 7.23536 8.25 6.94541 8.25C6.65546 8.25 6.42041 8.50072 6.42041 8.81C6.42041 9.11928 6.65546 9.37 6.94541 9.37Z"
					fill="#005BBF" stroke="#AD1619" stroke-width="0.729167" />
			</g>
		</g>
	</symbol>
	<symbol id="error-frigidaire" viewBox="0 0 17 16" fill="none" xmlns="http://www.w3.org/2000/svg">
		<g clip-path="url(#clip0_167_2603)">
			<path
				d="M8.5 14.6667C12.1819 14.6667 15.1667 11.6819 15.1667 8C15.1667 4.3181 12.1819 1.33333 8.5 1.33333C4.8181 1.33333 1.83333 4.3181 1.83333 8C1.83333 11.6819 4.8181 14.6667 8.5 14.6667Z"
				fill="currentColor" stroke="currentColor" stroke-width="2" stroke-linecap="round"
				stroke-linejoin="round" />
			<path d="M10.5 6L6.5 10" stroke="white" stroke-width="1.5" stroke-linecap="round"
				stroke-linejoin="round" />
			<path d="M6.5 6L10.5 10" stroke="white" stroke-width="1.5" stroke-linecap="round"
				stroke-linejoin="round" />
		</g>
		<defs>
			<clipPath id="clip0_167_2603">
				<rect width="16" height="16" fill="white" transform="translate(0.5)" />
			</clipPath>
		</defs>
	</symbol>
	<symbol id="close-frigidaire" viewBox="0 0 18 18" xmlns="http://www.w3.org/2000/svg"
		xmlns:xlink="http://www.w3.org/1999/xlink" fill="none">
		<g fill="currentColor">
			<path
				d="M14.53 4.53l-1.06-1.06L9 7.94 4.53 3.47 3.47 4.53 7.94 9l-4.47 4.47 1.06 1.06L9 10.06l4.47 4.47 1.06-1.06L10.06 9z"></path>
		</g>
	</symbol>

</svg>