<svg style="display:none" xmlns="http://www.w3.org/2000/svg"
	xmlns:xlink="http://www.w3.org/1999/xlink" version="1.1">
	<symbol id="search" xmlns="http://www.w3.org/2000/svg" viewBox="0 -960 960 960"
		fill="currentColor">
		<path
			d="M784-120 532-372q-30 24-69 38t-83 14q-109 0-184.5-75.5T120-580q0-109 75.5-184.5T380-840q109 0 184.5 75.5T640-580q0 44-14 83t-38 69l252 252-56 56ZM380-400q75 0 127.5-52.5T560-580q0-75-52.5-127.5T380-760q-75 0-127.5 52.5T200-580q0 75 52.5 127.5T380-400Z" />
	</symbol>
	<symbol id="shopping_bag" xmlns="http://www.w3.org/2000/svg" viewBox="0 -960 960 960"
		fill="currentColor">
		<path
			d="M240-80q-33 0-56.5-23.5T160-160v-480q0-33 23.5-56.5T240-720h80q0-66 47-113t113-47q66 0 113 47t47 113h80q33 0 56.5 23.5T800-640v480q0 33-23.5 56.5T720-80H240Zm0-80h480v-480h-80v80q0 17-11.5 28.5T600-520q-17 0-28.5-11.5T560-560v-80H400v80q0 17-11.5 28.5T360-520q-17 0-28.5-11.5T320-560v-80h-80v480Zm160-560h160q0-33-23.5-56.5T480-800q-33 0-56.5 23.5T400-720ZM240-160v-480 480Z" />
	</symbol>
	<symbol id="menu" xmlns="http://www.w3.org/2000/svg" viewBox="0 -960 960 960"
		fill="currentColor">
		<path d="M120-240v-80h720v80H120Zm0-200v-80h720v80H120Zm0-200v-80h720v80H120Z" />
	</symbol>
	<symbol id="account_circle" xmlns="http://www.w3.org/2000/svg" viewBox="0 -960 960 960"
		fill="currentColor">
		<path
			d="M234-276q51-39 114-61.5T480-360q69 0 132 22.5T726-276q35-41 54.5-93T800-480q0-133-93.5-226.5T480-800q-133 0-226.5 93.5T160-480q0 59 19.5 111t54.5 93Zm246-164q-59 0-99.5-40.5T340-580q0-59 40.5-99.5T480-720q59 0 99.5 40.5T620-580q0 59-40.5 99.5T480-440Zm0 360q-83 0-156-31.5T197-197q-54-54-85.5-127T80-480q0-83 31.5-156T197-763q54-54 127-85.5T480-880q83 0 156 31.5T763-763q54 54 85.5 127T880-480q0 83-31.5 156T763-197q-54 54-127 85.5T480-80Zm0-80q53 0 100-15.5t86-44.5q-39-29-86-44.5T480-280q-53 0-100 15.5T294-220q39 29 86 44.5T480-160Zm0-360q26 0 43-17t17-43q0-26-17-43t-43-17q-26 0-43 17t-17 43q0 26 17 43t43 17Zm0-60Zm0 360Z" />
	</symbol>
	<symbol id="close" xmlns="http://www.w3.org/2000/svg" viewBox="0 -960 960 960"
		fill="currentColor">
		<path
			d="m256-200-56-56 224-224-224-224 56-56 224 224 224-224 56 56-224 224 224 224-56 56-224-224-224 224Z" />
	</symbol>
	<symbol id="chevron-right" xmlns="http://www.w3.org/2000/svg" viewBox="0 -960 960 960"
		fill="currentColor">
		<path d="M504-480 320-664l56-56 240 240-240 240-56-56 184-184Z" />
	</symbol>
	<symbol id="favorite" xmlns="http://www.w3.org/2000/svg" viewBox="0 -960 960 960"
		fill="currentColor">
		<path
			d="m480-120-58-52q-101-91-167-157T150-447.5Q111-500 95.5-544T80-634q0-94 63-157t157-63q52 0 99 22t81 62q34-40 81-62t99-22q94 0 157 63t63 157q0 46-15.5 90T810-447.5Q771-395 705-329T538-172l-58 52Zm0-108q96-86 158-147.5t98-107q36-45.5 50-81t14-70.5q0-60-40-100t-100-40q-47 0-87 26.5T518-680h-76q-15-41-55-67.5T300-774q-60 0-100 40t-40 100q0 35 14 70.5t50 81q36 45.5 98 107T480-228Zm0-273Z" />
	</symbol>
	<symbol id="home_pin" xmlns="http://www.w3.org/2000/svg" viewBox="0 -960 960 960"
		fill="currentColor">
		<path
			d="M360-440h80v-110h80v110h80v-190l-120-80-120 80v190Zm120 254q122-112 181-203.5T720-552q0-109-69.5-178.5T480-800q-101 0-170.5 69.5T240-552q0 71 59 162.5T480-186Zm0 106Q319-217 239.5-334.5T160-552q0-150 96.5-239T480-880q127 0 223.5 89T800-552q0 100-79.5 217.5T480-80Zm0-480Z" />
	</symbol>
	<symbol id="call" xmlns="http://www.w3.org/2000/svg" viewBox="0 -960 960 960"
		fill="currentColor">
		<path
			d="M798-120q-125 0-247-54.5T329-329Q229-429 174.5-551T120-798q0-18 12-30t30-12h162q14 0 25 9.5t13 22.5l26 140q2 16-1 27t-11 19l-97 98q20 37 47.5 71.5T387-386q31 31 65 57.5t72 48.5l94-94q9-9 23.5-13.5T670-390l138 28q14 4 23 14.5t9 23.5v162q0 18-12 30t-30 12ZM241-600l66-66-17-94h-89q5 41 14 81t26 79Zm358 358q39 17 79.5 27t81.5 13v-88l-94-19-67 67ZM241-600Zm358 358Z" />
	</symbol>
	<symbol id="local_shipping" xmlns="http://www.w3.org/2000/svg" viewBox="0 -960 960 960"
		fill="currentColor">
		<path
			d="M240-160q-50 0-85-35t-35-85H40v-440q0-33 23.5-56.5T120-800h560v160h120l120 160v200h-80q0 50-35 85t-85 35q-50 0-85-35t-35-85H360q0 50-35 85t-85 35Zm0-80q17 0 28.5-11.5T280-280q0-17-11.5-28.5T240-320q-17 0-28.5 11.5T200-280q0 17 11.5 28.5T240-240ZM120-360h32q17-18 39-29t49-11q27 0 49 11t39 29h272v-360H120v360Zm600 120q17 0 28.5-11.5T760-280q0-17-11.5-28.5T720-320q-17 0-28.5 11.5T680-280q0 17 11.5 28.5T720-240Zm-40-200h170l-90-120h-80v120ZM360-540Z" />
	</symbol>
	<symbol id="pan_zoom" xmlns="http://www.w3.org/2000/svg" viewBox="0 -960 960 960"
		fill="currentColor">
		<path
			d="M120-120v-240h80v104l124-124 56 56-124 124h104v80H120Zm516-460-56-56 124-124H600v-80h240v240h-80v-104L636-580Z" />
	</symbol>
	<symbol id="share" xmlns="http://www.w3.org/2000/svg" viewBox="0 -960 960 960"
		fill="currentColor">
		<path
			d="M720-80q-50 0-85-35t-35-85q0-7 1-14.5t3-13.5L322-392q-17 15-38 23.5t-44 8.5q-50 0-85-35t-35-85q0-50 35-85t85-35q23 0 44 8.5t38 23.5l282-164q-2-6-3-13.5t-1-14.5q0-50 35-85t85-35q50 0 85 35t35 85q0 50-35 85t-85 35q-23 0-44-8.5T638-672L356-508q2 6 3 13.5t1 14.5q0 7-1 14.5t-3 13.5l282 164q17-15 38-23.5t44-8.5q50 0 85 35t35 85q0 50-35 85t-85 35Zm0-640q17 0 28.5-11.5T760-760q0-17-11.5-28.5T720-800q-17 0-28.5 11.5T680-760q0 17 11.5 28.5T720-720ZM240-440q17 0 28.5-11.5T280-480q0-17-11.5-28.5T240-520q-17 0-28.5 11.5T200-480q0 17 11.5 28.5T240-440Zm480 280q17 0 28.5-11.5T760-200q0-17-11.5-28.5T720-240q-17 0-28.5 11.5T680-200q0 17 11.5 28.5T720-160Zm0-600ZM240-480Zm480 280Z" />
	</symbol>
	<symbol id="sell" xmlns="http://www.w3.org/2000/svg" viewBox="0 -960 960 960"
		fill="currentColor">
		<path
			d="M856-390 570-104q-12 12-27 18t-30 6q-15 0-30-6t-27-18L103-457q-11-11-17-25.5T80-513v-287q0-33 23.5-56.5T160-880h287q16 0 31 6.5t26 17.5l352 353q12 12 17.5 27t5.5 30q0 15-5.5 29.5T856-390ZM513-160l286-286-353-354H160v286l353 354ZM260-640q25 0 42.5-17.5T320-700q0-25-17.5-42.5T260-760q-25 0-42.5 17.5T200-700q0 25 17.5 42.5T260-640Zm220 160Z" />
	</symbol>
	<symbol id="check-circle" xmlns="http://www.w3.org/2000/svg" viewBox="0 -960 960 960"
		fill="currentColor">
		<path
			d="m424-296 282-282-56-56-226 226-114-114-56 56 170 170Zm56 216q-83 0-156-31.5T197-197q-54-54-85.5-127T80-480q0-83 31.5-156T197-763q54-54 127-85.5T480-880q83 0 156 31.5T763-763q54 54 85.5 127T880-480q0 83-31.5 156T763-197q-54 54-127 85.5T480-80Zm0-80q134 0 227-93t93-227q0-134-93-227t-227-93q-134 0-227 93t-93 227q0 134 93 227t227 93Zm0-320Z" />
	</symbol>
	<symbol id="error" xmlns="http://www.w3.org/2000/svg" viewBox="0 -960 960 960"
		fill="currentColor">
		<path
			d="M480-280q17 0 28.5-11.5T520-320q0-17-11.5-28.5T480-360q-17 0-28.5 11.5T440-320q0 17 11.5 28.5T480-280Zm-40-160h80v-240h-80v240Zm40 360q-83 0-156-31.5T197-197q-54-54-85.5-127T80-480q0-83 31.5-156T197-763q54-54 127-85.5T480-880q83 0 156 31.5T763-763q54 54 85.5 127T880-480q0 83-31.5 156T763-197q-54 54-127 85.5T480-80Zm0-80q134 0 227-93t93-227q0-134-93-227t-227-93q-134 0-227 93t-93 227q0 134 93 227t227 93Zm0-320Z" />
	</symbol>
	<symbol id="trash" xmlns="http://www.w3.org/2000/svg" viewBox="0 -960 960 960"
		fill="currentColor">
		<path
			d="M280-120q-33 0-56.5-23.5T200-200v-520h-40v-80h200v-40h240v40h200v80h-40v520q0 33-23.5 56.5T680-120H280Zm400-600H280v520h400v-520ZM360-280h80v-360h-80v360Zm160 0h80v-360h-80v360ZM280-720v520-520Z" />
	</symbol>
	<symbol id="home-frigidaire" viewBox="0 0 16 16" fill="none" xmlns="http://www.w3.org/2000/svg">
		<path d="M3.33333 8H2L8 2L14 8H12.6667" stroke="currentColor" stroke-width="1.2"
			stroke-linecap="round" stroke-linejoin="round" />
		<path
			d="M3.33331 8V12.6667C3.33331 13.0203 3.47379 13.3594 3.72384 13.6095C3.97389 13.8595 4.31302 14 4.66665 14H11.3333C11.6869 14 12.0261 13.8595 12.2761 13.6095C12.5262 13.3594 12.6666 13.0203 12.6666 12.6667V8"
			stroke="currentColor" stroke-width="1.2" stroke-linecap="round" stroke-linejoin="round" />
		<path
			d="M6 14V9.99999C6 9.64637 6.14048 9.30723 6.39052 9.05718C6.64057 8.80713 6.97971 8.66666 7.33333 8.66666H8.66667C9.02029 8.66666 9.35943 8.80713 9.60948 9.05718C9.85952 9.30723 10 9.64637 10 9.99999V14"
			stroke="currentColor" stroke-width="1.2" stroke-linecap="round" stroke-linejoin="round" />
	</symbol>
	<symbol id="chevron-frigidaire" viewBox="0 0 16 17" fill="none"
		xmlns="http://www.w3.org/2000/svg">
		<path d="M6 4.5L10 8.5L6 12.5" stroke="currentColor" stroke-width="1.2"
			stroke-linecap="round" stroke-linejoin="round" />
	</symbol>
	<symbol id="headset-frigidaire" viewBox="0 0 24 24" fill="none"
		xmlns="http://www.w3.org/2000/svg">
		<path
			d="M21.5801 11.52L20.2401 10.75C20.2401 10.66 20.2501 10.58 20.2501 10.49C20.2501 5.93999 16.5501 2.23999 12.0001 2.23999C7.45009 2.23999 3.75009 5.93999 3.75009 10.49C3.75009 10.58 3.75009 10.66 3.76009 10.75L2.42009 11.52C1.54009 12.03 1.11009 13.07 1.37009 14.05L2.24009 17.31C2.50009 18.29 3.40009 18.98 4.41009 18.98H5.02009C5.57009 18.98 6.07009 18.73 6.41009 18.3C6.74009 17.86 6.85009 17.31 6.71009 16.78L5.48009 12.18C5.33009 11.63 5.25009 11.07 5.25009 10.51C5.25009 6.70999 8.39009 3.63999 12.2101 3.74999C15.8201 3.85999 18.7301 6.84999 18.7501 10.46C18.7501 10.64 18.7501 10.83 18.7301 11.02C18.7001 11.4 18.6201 11.78 18.5201 12.15L16.5301 19.58C16.3801 20.13 15.8901 20.51 15.3201 20.51H12.6801C12.3001 20.51 11.9601 20.78 11.9101 21.16C11.8501 21.62 12.2101 22.01 12.6501 22.01H15.3101C16.5501 22.01 17.6401 21.17 17.9701 19.97L18.2301 18.99H19.5701C20.5901 18.99 21.4801 18.3 21.7401 17.32L22.6101 14.06C22.8701 13.08 22.4401 12.04 21.5601 11.53L21.5801 11.52ZM5.23009 17.38C5.23009 17.38 5.14009 17.48 5.03009 17.48H4.42009C4.08009 17.48 3.78009 17.25 3.70009 16.92L2.83009 13.66C2.74009 13.33 2.89009 12.99 3.18009 12.82L3.65009 12.55C3.82009 12.45 4.04009 12.55 4.09009 12.73L5.28009 17.16C5.31009 17.26 5.26009 17.34 5.24009 17.38H5.23009ZM21.1801 13.66L20.3101 16.92C20.2201 17.25 19.9201 17.48 19.5901 17.48H19.0501C18.8501 17.48 18.7101 17.29 18.7601 17.1L19.9301 12.73C19.9801 12.54 20.2001 12.45 20.3701 12.55L20.8401 12.82C21.1301 12.99 21.2801 13.34 21.1901 13.66H21.1801Z"
			fill="currentColor" />
	</symbol>
	<symbol id="email-frigidaire" viewBox="0 0 24 24" fill="none" xmlns="http://www.w3.org/2000/svg">
		<path
			d="M1 4.99994V21.9999H23V4.99994H1ZM13.59 13.0699C12.71 13.9499 11.29 13.9499 10.41 13.0699L3.84 6.49994H20.16L13.59 13.0699ZM8.53 13.3199L2.5 19.3499V7.27994L8.53 13.3099V13.3199ZM9.62 14.3599C10.31 14.9299 11.15 15.2399 12 15.2399C12.85 15.2399 13.69 14.9399 14.38 14.3599L20.53 20.5099H3.47L9.62 14.3599ZM15.47 13.3199L21.5 7.28994V19.3499L15.47 13.3199Z"
			fill="currentColor" />
	</symbol>


</svg>